<svg width="32" height="32" viewBox="0 0 32 32" fill="none" xmlns="http://www.w3.org/2000/svg">
<path d="M21.8717 22.2152C19.8095 24.67 16.9982 25.4935 13.8389 25.4228C12.3341 25.3893 10.8767 25.089 9.50933 24.43C8.18302 23.7931 7.08833 22.7584 6.3777 21.4701C5.15684 19.3197 4.72277 17.0279 5.17438 14.5864C5.25553 14.1479 5.38275 13.7864 5.84262 13.4939C7.21237 12.6227 8.73323 12.2302 10.2882 11.9927C12.9812 11.5813 15.7001 11.4545 18.4136 11.756C19.7745 11.924 21.1253 12.1651 22.4603 12.4781C23.52 12.7131 23.5642 12.8258 23.7391 13.8373C24.1272 13.6911 24.5052 13.5013 24.9049 13.4067C26.1394 13.1143 27.3847 13.6324 28.1427 14.7325C29.4238 16.5921 29.5136 19.9602 26.7031 21.8822C25.6333 22.6138 24.4706 23.0649 23.1505 22.7516C22.7263 22.6511 22.3348 22.4142 21.8717 22.2152ZM6.81147 14.2085L6.83586 14.3722C7.24332 14.441 7.64886 14.5551 8.05833 14.5713C10.8558 14.6822 13.653 14.8173 16.4521 14.8517C17.9405 14.87 19.4368 14.7386 20.8797 14.3023C21.1668 14.2141 21.442 14.0912 21.6994 13.9363C21.7559 13.8938 21.8015 13.8384 21.8323 13.7746C21.8631 13.7109 21.8781 13.6407 21.8763 13.57C21.8516 13.5047 21.8123 13.446 21.7615 13.3982C21.7107 13.3504 21.6497 13.3148 21.583 13.2941C21.1496 13.1709 20.7103 13.0335 20.265 12.9943C18.9135 12.875 17.5595 12.7692 16.2041 12.7127C13.5407 12.6019 10.9095 12.8276 8.35137 13.6274C7.82829 13.7909 7.32416 14.0132 6.81147 14.2085ZM23.6807 15.3589C23.883 15.2998 23.9901 15.264 24.0993 15.2373C25.2039 14.9676 26.2868 15.4806 26.6736 16.4737C26.917 17.1059 26.9558 17.7985 26.7845 18.4539C26.3294 20.2851 24.5198 21.3672 22.6047 20.9646L22.4352 21.3584C23.0427 21.4372 23.6134 21.6244 24.1537 21.5594C25.659 21.378 26.7343 20.5002 27.2942 19.1209C27.8369 17.7846 27.6828 16.4379 26.8441 15.2421C26.1158 14.2042 24.3805 14.2382 23.6807 15.3589ZM23.1243 19.9853C24.8322 20.2103 26.2701 18.4493 25.6958 16.7837C25.4592 16.0974 24.3791 15.7843 23.841 16.2573C23.7531 16.3529 23.6976 16.4738 23.6821 16.6027C23.4921 17.719 23.3122 18.8369 23.1243 19.9853Z" fill="black"/>
<path d="M15.9461 9.63084C15.9248 10.2357 15.7799 10.7041 15.396 11.0353C15.3064 11.0999 15.2049 11.1463 15.0973 11.1717C14.9898 11.1971 14.8782 11.201 14.7692 11.1832C14.4776 11.1289 14.4589 10.8215 14.538 10.6073C14.8158 9.85494 14.6656 9.15363 14.4638 8.40716C14.2655 7.6738 14.5121 6.95122 14.9182 6.30445C15.0694 6.06413 15.2843 5.9342 15.5532 6.06968C15.8111 6.19931 15.8153 6.45526 15.71 6.68338C15.3638 7.4359 15.394 8.16251 15.7624 8.90313C15.8857 9.15 15.9029 9.44939 15.9461 9.63084Z" fill="black"/>
<path d="M9.67805 11.2154C9.68671 11.1443 9.70758 11.0752 9.73974 11.0112C10.0912 10.493 9.94448 10.0032 9.69831 9.49461C9.19821 8.46115 9.34851 7.51519 10.1206 6.66994C10.2102 6.57175 10.3066 6.43708 10.42 6.41249C10.6143 6.37055 10.8736 6.3271 11.0169 6.42045C11.2347 6.56158 11.1226 6.78668 10.9901 6.9895C10.8016 7.28451 10.6325 7.5915 10.484 7.90854C10.2869 8.31872 10.3956 8.7166 10.5445 9.12345C10.7144 9.53932 10.8366 9.9731 10.9088 10.4165C10.9758 10.9628 10.6594 11.452 10.2514 11.6114C9.90405 11.747 9.66333 11.5965 9.67805 11.2154Z" fill="black"/>
<path d="M17.4386 9.30363C17.34 8.93428 17.2627 8.57482 17.1476 8.22795C16.9148 7.52664 17.1131 6.90738 17.4803 6.31767C17.6361 6.06717 17.8692 5.90961 18.1586 6.05669C18.4631 6.21152 18.3585 6.4835 18.2493 6.71546C18.1327 6.94792 18.0756 7.20572 18.0833 7.46569C18.0909 7.72566 18.163 7.97966 18.2932 8.20486C18.6981 8.97965 18.7194 9.76583 18.1063 10.4502C17.9077 10.672 17.6 10.8246 17.3132 10.9294C17.0863 11.0124 16.9184 10.8891 17.0165 10.5957C17.1593 10.1702 17.2956 9.74264 17.4386 9.30363Z" fill="black"/>
<path d="M13.1952 6.44466C13.1521 6.5866 13.1019 6.72629 13.0449 6.8632C12.7738 7.42409 12.8369 7.95866 13.1321 8.49242C13.4196 9.01238 13.6302 9.57347 13.5386 10.17C13.4754 10.5082 13.3355 10.8273 13.1298 11.103C13.0411 11.2262 12.7229 11.2802 12.561 11.2215C12.4483 11.1812 12.3405 10.8761 12.3749 10.7215C12.5479 9.94715 12.3995 9.2516 12.0658 8.53991C11.6908 7.74022 11.873 6.9629 12.4435 6.30151C12.5475 6.18055 12.7851 6.13126 12.9593 6.13469C13.042 6.1363 13.1206 6.34033 13.1952 6.44466Z" fill="black"/>
</svg>
