<svg width="32" height="32" viewBox="0 0 32 32" fill="none" xmlns="http://www.w3.org/2000/svg">
<path d="M27.7643 9.50108C27.3924 9.5953 27.018 9.66919 26.6876 9.73444C26.5819 9.75535 26.4813 9.77511 26.3883 9.79414C26.154 9.52227 25.9305 9.25883 25.7134 9.00299C25.2128 8.41358 24.7399 7.85701 24.2464 7.32395C23.6294 6.65749 22.786 6.23644 21.7399 6.07257C18.6116 5.58338 15.2584 7.61946 14.2644 10.6127C14.2175 10.7546 14.1672 10.8955 14.1191 11.0306C14.1037 11.0733 14.0888 11.1154 14.0741 11.1569L14.0625 11.1581C14.0481 11.1596 14.0377 11.1614 14.0344 11.162C13.9463 11.1364 13.8598 11.1055 13.7755 11.0693C12.0329 10.2765 10.6461 9.0178 9.536 7.22174C9.48425 7.13792 9.43521 7.05226 9.38599 6.96658C9.29358 6.79739 9.19096 6.63397 9.07868 6.47727C8.86802 6.19602 8.62596 6.05421 8.38324 6.06593C8.22058 6.07409 7.98228 6.15703 7.77134 6.50653C7.54455 6.9 7.351 7.3117 7.19272 7.73736C6.4414 9.64667 6.86355 11.5422 7.31514 12.9804C7.36764 13.1473 7.41705 13.3184 7.47958 13.5352C7.49833 13.602 7.51943 13.6733 7.54193 13.7508L5.89896 13.0399C5.88683 13.0346 5.87376 13.0319 5.86055 13.0319C5.84734 13.032 5.83427 13.0347 5.82216 13.04C5.81005 13.0452 5.79915 13.053 5.79014 13.0626C5.78112 13.0723 5.77419 13.0837 5.76977 13.0961C5.46274 13.9685 5.47615 14.6685 5.82283 15.8706C6.31727 17.5839 7.34947 18.9423 8.9764 20.0191C8.81703 20.1283 8.66064 20.2375 8.5068 20.345C7.61383 20.9697 6.77037 21.5597 5.72402 21.7483C5.42402 21.8023 5.2054 21.9394 5.09074 22.1447C4.96812 22.3646 4.96981 22.65 5.09562 22.9705C5.26052 23.3902 5.4469 23.6939 5.66543 23.8993C6.1744 24.3774 6.64044 24.7971 7.19028 25.0874C8.89765 25.989 10.8635 26.444 13.0446 26.444C13.3119 26.444 13.5825 26.4373 13.8564 26.4237C16.6991 26.2814 19.2881 25.1081 21.5514 22.9365C23.8792 20.7031 25.4493 17.7977 26.2183 14.3005C26.3613 13.6497 26.5219 13.1209 27.1652 12.73C27.8998 12.2832 28.4601 11.5721 28.7855 10.6734C28.8867 10.3937 29.0253 10.0109 28.7462 9.66899C28.4643 9.3238 28.0963 9.41689 27.7643 9.50108Z" fill="black"/>
</svg>
