<svg width="32" height="32" viewBox="0 0 32 32" fill="none" xmlns="http://www.w3.org/2000/svg">
<path d="M25.625 31.2812C26.1747 30.9514 28.1535 29.4124 28.4833 28.9727C28.5932 28.7528 28.7031 28.423 28.7031 27.9833C28.7031 27.5435 28.5932 27.2137 27.9336 25.8945C27.1641 24.3555 27.1641 24.3555 27.1641 23.3661C27.274 22.3767 27.274 22.3767 27.9336 20.9475C28.5932 19.7383 28.7031 19.5184 28.8131 18.9687C28.8131 18.3092 28.8131 18.1992 28.5932 17.8694C27.9336 16.88 27.3839 16.88 24.8555 17.3198C23.8661 17.4297 21.5575 17.8694 19.6886 18.1992C17.8198 18.6389 16.3906 18.8588 16.2807 18.8588C16.2807 18.8588 16.3906 18.639 16.3906 18.4191C16.7204 17.2098 15.9509 16.2204 14.7416 16.2204C14.192 16.2204 13.5324 16.4403 9.13505 18.529C4.73772 20.6177 3.96819 20.9475 3.08873 21.6071C1.21987 23.0363 1 23.3661 1 24.2455C1 24.7952 1.21987 25.2349 1.54967 25.6747C1.6596 25.7846 4.07813 27.1038 6.82645 28.6429C12.3231 31.611 12.433 31.611 13.3125 31.1713C13.5324 31.0614 14.192 30.5117 14.8516 30.072C15.9509 29.1925 15.1814 29.0826 22.5469 31.0614C24.6356 31.5011 24.9654 31.611 25.625 31.2812ZM11.5536 14.7913C13.5324 14.3516 15.4012 13.8019 15.6211 13.8019C16.1708 13.582 16.1708 13.582 17.2701 14.4615C18.6992 15.5608 18.9191 15.6708 19.5787 15.6708C20.1283 15.6708 20.5681 15.4509 24.7455 13.1423C30.3521 10.0642 30.572 9.95424 30.7919 9.51451C31.0117 9.07478 31.1217 8.19531 30.7919 7.64565C30.572 7.20591 28.4833 5.55692 27.3839 5.00725C26.9442 4.78739 24.5257 3.68806 22.1071 2.58873C17.9297 0.609933 17.7098 0.5 17.1602 0.5C16.0608 0.609933 15.4012 1.59933 15.6211 2.58873C15.6211 2.91853 15.731 3.13839 15.731 3.24833H15.5112C15.4012 3.13839 12.9827 2.69866 10.2344 2.25893C6.82645 1.59933 4.95759 1.26953 4.73772 1.37946C3.74833 1.4894 3.19866 2.25893 3.19866 3.24833C3.19866 3.68806 3.30859 3.90792 3.96819 5.22712C4.84766 6.65625 4.84766 6.65625 4.84766 7.75558C4.84766 8.96484 4.84766 8.96484 4.07813 10.284C3.41853 11.6032 3.30859 11.8231 3.30859 12.3728C3.30859 12.7026 3.41853 13.0324 3.41853 13.2522C3.63839 13.4721 5.28739 14.9012 6.16685 15.4509C6.60659 15.7807 7.15625 15.8906 7.59598 15.7807C7.70591 15.7807 9.46484 15.341 11.5536 14.7913ZM22.7667 30.072C22.5469 29.8521 22.6568 29.5223 23.2065 28.9727C23.6462 28.423 23.976 28.3131 24.1959 28.5329C24.4157 28.7528 24.3058 29.0826 23.7561 29.6323C23.3164 30.1819 22.9866 30.2918 22.7667 30.072ZM20.678 29.4124C20.3482 29.1925 20.4581 29.0826 21.0078 28.423C21.5575 27.7634 21.7773 27.6535 21.9972 27.9833C22.327 28.2031 22.2171 28.423 21.6674 29.0826C21.1177 29.6323 20.8979 29.7422 20.678 29.4124ZM9.68471 28.9727C9.35491 28.7528 9.46484 28.5329 10.0145 27.8733C10.5642 27.4336 10.6741 27.3237 10.894 27.3237C11.1138 27.4336 11.3337 27.7634 11.1138 27.9833C11.0039 28.3131 10.1244 29.1925 10.0145 29.1925C9.90458 29.1925 9.68471 29.0826 9.68471 28.9727ZM25.8449 27.9833C25.4051 27.8733 22.6568 27.1038 19.5787 26.3343C16.3906 25.5647 13.8622 24.9051 13.7522 24.7952H13.5324L13.4224 25.0151C13.4224 25.125 13.6423 25.6747 14.082 26.5541L14.7416 27.9833V28.0932H14.6317L14.192 27.9833C13.5324 27.6535 5.39732 23.1462 5.06752 22.9263C4.40792 22.4866 4.29799 22.5965 8.69531 20.5078C10.0145 19.8482 11.9933 18.9687 12.8728 18.529L14.6317 17.7595L14.7416 17.8694L14.8516 17.9794L14.192 19.2985C13.7522 20.0681 13.4224 20.7277 13.4224 20.8376L13.5324 20.9475H13.7522C13.9721 20.9475 16.6105 20.5078 23.8661 19.1886C25.4051 18.8588 26.7243 18.6389 26.8343 18.6389H27.1641V18.8588C27.1641 18.8588 26.8343 19.6283 26.3945 20.5078C25.625 22.0469 25.625 22.0469 25.625 23.3661C25.625 24.7952 25.625 24.7952 26.3945 26.3343C26.8343 27.3237 27.1641 28.0932 27.0541 28.0932C27.0541 28.2031 26.6144 28.2031 25.8449 27.9833ZM7.81585 27.9833C7.59598 27.7634 7.70591 27.4336 8.25558 26.8839C8.80524 26.3343 9.13504 26.1144 9.35491 26.5541C9.46484 26.774 9.46484 26.8839 8.80525 27.5435C8.36551 28.0932 8.03571 28.2031 7.81585 27.9833ZM8.25558 14.0218C7.70591 13.3622 7.59598 13.0324 7.92578 12.8125C8.25558 12.7026 8.36551 12.7026 8.91518 13.3622C9.35491 13.9118 9.46484 14.2416 9.24498 14.4615C9.02511 14.6814 8.69531 14.5714 8.25558 14.0218ZM10.3443 13.4721C9.79464 12.8125 9.68471 12.4827 9.90457 12.2628C10.2344 12.043 10.5642 12.2628 11.1138 12.8125C11.5536 13.4721 11.6635 13.582 11.2238 13.9118L11.0039 14.0218L10.3443 13.4721ZM21.3376 13.0324C20.7879 12.3728 20.678 12.043 20.8979 11.8231C21.2277 11.6032 21.5575 11.8231 22.1071 12.3728C22.5469 13.0324 22.6568 13.1423 22.2171 13.4721L21.9972 13.582L21.3376 13.0324ZM4.95759 12.3728C4.95759 12.2628 5.17746 11.6032 5.72712 10.7238C6.38672 9.18471 6.38672 9.18471 6.49665 7.97545C6.49665 6.65625 6.38672 6.21652 5.50726 4.56752C4.84766 3.35826 4.73772 3.13839 4.95759 3.02846C4.95759 2.91853 6.05692 3.13839 7.15625 3.35826C15.5112 4.89732 17.7098 5.22712 18.0396 5.33705H18.4793L18.5893 5.22712C18.5893 5.11719 18.2595 4.45759 17.9297 3.68806C17.49 2.91853 17.1602 2.25893 17.1602 2.25893V2.149H17.2701C17.5999 2.149 27.0541 6.65625 27.1641 6.76618L27.274 6.98605L27.1641 7.09598C27.0541 7.20591 24.8555 8.41518 22.2171 9.84431L17.49 12.4827L17.38 12.3728L17.2701 12.2628L17.9297 10.9436C18.2595 10.1741 18.5893 9.51451 18.5893 9.40458V9.18471H18.3694C18.2595 9.18471 6.38672 12.2628 5.28739 12.5926H5.06752L4.95759 12.3728ZM23.2065 12.043C22.6568 11.2734 22.5469 11.1635 22.7667 10.8337C22.9866 10.5039 23.0965 10.5039 23.7561 11.1635C24.3058 11.7132 24.4157 12.1529 24.1959 12.3728C23.976 12.5926 23.6462 12.4827 23.2065 12.043Z" fill="#262626"/>
</svg>
