<svg xmlns="http://www.w3.org/2000/svg" xmlns:xlink="http://www.w3.org/1999/xlink" viewBox="0 0 1024 1024" version="1.1" width="200" height="200">
    <path d="M341.333333 512a42.666667 42.666667 0 0 0 42.666667 42.666667h256a42.666667 42.666667 0 0 0 0-85.333334H384a42.666667 42.666667 0 0 0-42.666667 42.666667z" fill="currentColor"></path>
    <path d="M384 682.666667H307.626667A176.213333 176.213333 0 0 1 128 527.786667 170.666667 170.666667 0 0 1 298.666667 341.333333h85.333333a42.666667 42.666667 0 0 0 0-85.333333H307.626667a262.4 262.4 0 0 0-262.826667 222.293333A256 256 0 0 0 298.666667 768h85.333333a42.666667 42.666667 0 0 0 0-85.333333zM981.333333 479.573333A262.826667 262.826667 0 0 0 715.093333 256h-64.426666C616.106667 256 597.333333 275.2 597.333333 298.666667a42.666667 42.666667 0 0 0 42.666667 42.666666h76.373333A176.213333 176.213333 0 0 1 896 496.213333 170.666667 170.666667 0 0 1 725.333333 682.666667h-85.333333a42.666667 42.666667 0 0 0 0 85.333333h85.333333a256 256 0 0 0 256-288.426667z" fill="currentColor"></path>
</svg>